<?xml version="1.0" encoding="UTF-8" standalone="no"?>
<!-- Created with Inkscape (http://www.inkscape.org/) -->
<!DOCTYPE svg PUBLIC "-//W3C//DTD SVG 1.1//EN" "http://www.w3.org/Graphics/SVG/1.1/DTD/svg11.dtd">
<svg
   xmlns:svg="http://www.w3.org/2000/svg"
   xmlns="http://www.w3.org/2000/svg"
   version="1.1"
   width="400"
   height="280"
   id="svg2816"
   xml:space="preserve"><defs
     id="defs2820" /><g
     transform="matrix(1.25,0,0,-1.25,0,280)"
     id="g2826"><g
       transform="matrix(-5.1008423,0,0,-5.1008423,2983.2601,2343.5292)"
       id="g3051"><path
         d="m 581.319,456.143 c 0,0.969 -0.688,1.629 -1.647,1.629 -1.053,0 -1.385,-0.351 -1.39,-0.37 l -0.108,-0.468 c -0.004,-0.023 0.019,-0.052 0.043,-0.052 0.028,0 0.056,0.029 0.065,0.061 0.07,0.216 0.529,0.684 1.264,0.684 0.898,0 1.366,-0.815 1.366,-1.629 0,-0.87 -0.44,-1.479 -1.352,-1.479 -0.604,0 -0.936,0.305 -1.227,0.805 -0.018,0.033 -0.051,0.155 -0.107,0.155 -0.08,0 -0.038,-0.155 -0.028,-0.403 0.014,-0.304 0.014,-0.379 0.065,-0.379 0.047,0 0.075,0.047 0.113,0.047 0.135,0 0.379,-0.36 1.258,-0.36 0.988,0 1.685,0.79 1.685,1.759"
         id="path2830"
         style="fill:#0c2950;fill-opacity:1;fill-rule:evenodd;stroke:none" /><path
         d="m 570.266,457.772 c -1.044,0 -1.769,-0.679 -1.769,-1.731 0,-0.969 0.735,-1.657 1.689,-1.657 0.96,0 1.718,0.707 1.718,1.68 0,0.987 -0.623,1.708 -1.638,1.708 z m 0.061,-3.233 c -0.913,0 -1.488,0.828 -1.488,1.679 0,0.866 0.547,1.414 1.23,1.414 0.927,0 1.493,-0.838 1.493,-1.704 0,-0.739 -0.449,-1.389 -1.235,-1.389"
         id="path2834"
         style="fill:#0c2950;fill-opacity:1;fill-rule:evenodd;stroke:none" /><path
         d="m 561.498,454.89 c 0,-0.407 -0.342,-0.29 -0.342,-0.398 0,-0.056 0.029,-0.065 0.089,-0.065 0.071,0 0.183,0.018 0.45,0.018 0.229,0 0.374,-0.018 0.472,-0.018 0.061,0 0.094,0.009 0.094,0.061 0,0.093 -0.393,0.06 -0.393,0.304 l 0,2.372 c 0,0.22 0.009,0.351 0.131,0.407 0.15,0.075 0.196,0.066 0.206,0.122 0,0.037 -0.028,0.047 -0.071,0.047 -0.187,0 -0.383,-0.014 -0.57,-0.019 -0.356,-0.009 -0.712,0.019 -1.067,0.019 -0.206,0 -0.309,0.009 -0.459,-0.16 -0.112,-0.121 -0.234,-0.285 -0.234,-0.453 0,-0.01 0.005,-0.057 0.038,-0.057 0.06,0 0.219,0.483 1.3,0.483 0.393,0 0.356,-0.113 0.356,-0.389 l 0,-2.274"
         id="path2838"
         style="fill:#0c2950;fill-opacity:1;fill-rule:evenodd;stroke:none" /><path
         d="m 552.86,454.89 c 0,-0.407 -0.342,-0.29 -0.342,-0.398 0,-0.056 0.028,-0.065 0.089,-0.065 0.071,0 0.183,0.018 0.45,0.018 0.229,0 0.374,-0.018 0.472,-0.018 0.061,0 0.094,0.009 0.094,0.061 0,0.093 -0.393,0.06 -0.393,0.304 l 0,2.372 c 0,0.22 0.009,0.351 0.131,0.407 0.149,0.075 0.196,0.066 0.206,0.122 0,0.037 -0.028,0.047 -0.071,0.047 -0.187,0 -0.383,-0.014 -0.571,-0.019 -0.355,-0.009 -0.711,0.019 -1.066,0.019 -0.206,0 -0.309,0.009 -0.459,-0.16 -0.112,-0.121 -0.234,-0.285 -0.234,-0.453 0,-0.01 0.005,-0.057 0.038,-0.057 0.06,0 0.219,0.483 1.3,0.483 0.393,0 0.356,-0.113 0.356,-0.389 l 0,-2.274"
         id="path2842"
         style="fill:#0c2950;fill-opacity:1;fill-rule:evenodd;stroke:none" /><path
         d="m 544.214,454.918 c 0,-0.314 0.009,-0.295 -0.44,-0.295 -0.187,0 -0.674,-0.028 -0.795,0.131 -0.075,0.108 0,0.332 -0.113,0.332 -0.028,0 -0.093,-0.037 -0.093,-0.557 0,-0.056 0.009,-0.102 0.046,-0.102 0.145,0 0.576,0.018 0.67,0.018 0.196,0 0.439,-0.018 1.324,-0.018 0.135,0 0.164,0.018 0.164,0.056 0,0.056 -0.103,0.065 -0.141,0.075 -0.252,0.037 -0.252,0.262 -0.252,0.472 l 0,2.134 c 0,0.22 0.009,0.351 0.13,0.407 0.15,0.075 0.197,0.066 0.206,0.122 0,0.037 -0.028,0.047 -0.07,0.047 -0.187,0 -0.383,-0.015 -0.57,-0.019 -0.356,-0.01 -0.712,0.019 -1.067,0.019 -0.206,0 -0.309,0.009 -0.459,-0.16 -0.112,-0.121 -0.234,-0.285 -0.234,-0.453 0,-0.01 0.005,-0.057 0.037,-0.057 0.061,0 0.22,0.482 1.301,0.482 0.393,0 0.356,-0.112 0.356,-0.388 l 0,-0.861 c 0,-0.07 0.014,-0.15 -0.084,-0.15 l -0.693,0 c -0.393,0 -0.234,0.412 -0.379,0.412 -0.033,0 -0.051,-0.019 -0.051,-0.061 0,-0.126 0.009,-0.248 0.009,-0.369 0,-0.15 -0.009,-0.309 -0.009,-0.473 0,-0.038 0.014,-0.089 0.051,-0.089 0.112,0 -0.014,0.374 0.473,0.374 l 0.505,0 c 0.187,0 0.178,0 0.178,-0.159 l 0,-0.87"
         id="path2846"
         style="fill:#0c2950;fill-opacity:1;fill-rule:evenodd;stroke:none" /><path
         d="m 533.868,455.999 c 0.042,0 0.108,-0.009 0.108,0.051 0,0.117 -0.407,0.019 -0.407,0.239 l 0,0.726 c 0,0.397 0.547,0.608 0.973,0.608 0.903,0 1.38,-0.791 1.38,-1.619 0,-0.772 -0.421,-1.484 -1.263,-1.484 -1.104,0 -1.315,0.903 -1.437,0.903 -0.047,0 -0.051,-0.046 -0.051,-0.084 l 0.046,-0.613 c 0.005,-0.037 -0.014,-0.107 0.052,-0.107 0.052,0 0.07,0.084 0.122,0.084 0.131,0 0.365,-0.318 1.174,-0.318 0.992,0 1.75,0.697 1.75,1.708 0,1.038 -0.641,1.68 -1.675,1.68 -0.833,0 -0.959,-0.319 -1.441,-0.473 l 0,-0.955 c 0,-0.313 -0.239,-0.206 -0.239,-0.304 0,-0.061 0.089,-0.042 0.127,-0.042 l 0.781,0"
         id="path2850"
         style="fill:#0c2950;fill-opacity:1;fill-rule:evenodd;stroke:none" /><path
         d="m 525.9,454.918 c 0,-0.314 0.009,-0.295 -0.44,-0.295 -0.187,0 -0.674,-0.028 -0.795,0.131 -0.075,0.108 0,0.332 -0.113,0.332 -0.028,0 -0.093,-0.037 -0.093,-0.557 0,-0.056 0.009,-0.102 0.046,-0.102 0.145,0 0.576,0.018 0.67,0.018 0.196,0 0.439,-0.018 1.324,-0.018 0.135,0 0.164,0.018 0.164,0.056 0,0.056 -0.103,0.065 -0.141,0.075 -0.252,0.037 -0.252,0.262 -0.252,0.472 l 0,2.134 c 0,0.22 0.009,0.351 0.131,0.407 0.149,0.075 0.196,0.066 0.205,0.122 0,0.037 -0.028,0.047 -0.07,0.047 -0.187,0 -0.383,-0.015 -0.571,-0.019 -0.355,-0.01 -0.711,0.019 -1.066,0.019 -0.206,0 -0.309,0.009 -0.459,-0.16 -0.112,-0.121 -0.234,-0.285 -0.234,-0.453 0,-0.01 0.005,-0.057 0.037,-0.057 0.061,0 0.22,0.482 1.301,0.482 0.393,0 0.356,-0.112 0.356,-0.388 l 0,-0.861 c 0,-0.07 0.014,-0.15 -0.084,-0.15 l -0.693,0 c -0.393,0 -0.234,0.412 -0.379,0.412 -0.033,0 -0.051,-0.019 -0.051,-0.061 0,-0.126 0.009,-0.248 0.009,-0.369 0,-0.15 -0.009,-0.309 -0.009,-0.473 0,-0.038 0.014,-0.089 0.051,-0.089 0.112,0 -0.014,0.374 0.473,0.374 l 0.505,0 c 0.187,0 0.178,0 0.178,-0.159 l 0,-0.87"
         id="path2854"
         style="fill:#0c2950;fill-opacity:1;fill-rule:evenodd;stroke:none" /><path
         d="m 583.288,443.539 c 0,4.575 -3.249,7.691 -7.779,7.691 -4.973,0 -6.542,-1.658 -6.564,-1.746 l -0.508,-2.21 c -0.022,-0.111 0.088,-0.113 0.199,-0.113 0.132,0 0.708,0.475 0.807,0.602 0.725,0.932 1.99,2.762 5.46,2.762 4.243,0 6.462,-3.826 6.462,-7.671 0,-4.111 -2.077,-6.984 -6.387,-6.984 -2.85,0 -4.419,1.437 -5.79,3.802 -0.088,0.154 -0.243,0.729 -0.508,0.729 -0.376,0 -0.177,-0.729 -0.133,-1.901 0.067,-1.436 0.067,-1.79 0.31,-1.79 0.221,0 0.353,0.221 0.53,0.221 0.641,0 1.79,-1.702 5.945,-1.702 4.663,0 7.956,3.735 7.956,8.31"
         id="path2858"
         style="fill:#0c2950;fill-opacity:1;fill-rule:evenodd;stroke:none" /><path
         d="m 564.312,445.705 c 5.171,0.862 5.547,2.254 5.547,3.425 0,1.57 -0.95,2.1 -2.387,2.1 -1.237,0 -2.453,-0.486 -3.381,-1.282 -0.287,0.729 -0.862,1.127 -1.724,1.127 -0.309,0 -1.282,-0.088 -1.282,-0.552 0,-0.155 0.177,-0.155 0.288,-0.155 0.088,0 0.287,0.044 0.375,0.044 1.15,0 0.951,-1.304 0.951,-2.055 l 0,-4.575 c 0,-1.878 2.121,-2.276 3.491,-2.276 2.453,-0.066 3.691,1.481 3.713,2.497 0,0.398 -0.663,0.729 -1.039,0.729 -0.419,0 -0.486,-0.176 -0.486,-0.419 0,-0.243 0.133,-0.575 0.133,-0.906 0,-1.216 -0.862,-1.326 -1.923,-1.326 -1.37,0 -2.276,0.773 -2.276,1.922 l 0,1.702 z m 0,3.094 c 0,1.171 1.503,1.79 2.298,1.79 1.172,0 1.812,-0.486 1.812,-1.746 0,-1.945 -2.696,-2.298 -4.11,-2.608 l 0,2.564"
         id="path2862"
         style="fill:#0c2950;fill-opacity:1;fill-rule:evenodd;stroke:none" /><path
         d="m 559.171,444.202 c 0.022,-0.354 -0.751,-1.724 -2.608,-1.724 -1.79,0 -2.586,1.658 -2.586,2.763 l 0,4.132 c 0,1.437 0.951,0.995 0.951,1.437 0,0.221 -0.111,0.265 -0.398,0.265 -0.287,0 -0.751,-0.088 -1.591,-0.088 -1.083,0 -1.635,0.088 -1.923,0.088 -0.221,0 -0.375,-0.044 -0.375,-0.31 0,-0.596 1.723,0.045 1.723,-1.48 l 0,-3.647 c 0,-1.679 0.641,-4.132 3.602,-4.132 2.144,0 3.249,1.9 3.205,1.635 l 0,-1.459 c 0,-0.22 0.133,-0.353 0.265,-0.353 0.508,0 0.951,0.707 2.785,1.105 0.11,0.022 0.199,0.11 0.199,0.243 0,0.464 -1.636,-0.11 -1.636,1.215 l 0,5.481 c 0,1.437 1.304,0.995 1.304,1.437 0,0.221 -0.11,0.265 -0.398,0.265 -0.265,0 -0.707,-0.088 -1.878,-0.088 -1.282,0 -1.724,0.088 -2.1,0.088 -0.331,0 -0.486,-0.044 -0.486,-0.31 0,-0.596 1.945,0.045 1.945,-1.48 l 0,-5.083"
         id="path2866"
         style="fill:#0c2950;fill-opacity:1;fill-rule:evenodd;stroke:none" /><path
         d="m 550.87,449.108 c 0,2.011 0.972,1.171 0.972,1.724 -0.022,0.221 -0.154,0.243 -0.331,0.243 -0.243,0 -0.818,-0.088 -1.525,-0.088 -0.906,0 -1.591,0.088 -2.055,0.088 -0.288,0 -0.42,-0.066 -0.42,-0.243 0,-0.575 1.746,-0.089 1.746,-1.216 l 0,-7.934 c 0,-0.22 0.132,-0.353 0.265,-0.353 0.508,0 0.95,0.707 2.365,1.105 0.11,0.022 0.198,0.11 0.198,0.243 0,0.464 -1.215,-0.11 -1.215,1.215 l 0,5.216"
         id="path2870"
         style="fill:#0c2950;fill-opacity:1;fill-rule:evenodd;stroke:none" /><path
         d="m 545.64,446.898 c -0.884,0.42 -2.011,0.773 -2.011,1.945 0,1.149 0.884,1.812 1.967,1.812 2.387,0 2.143,-2.917 2.63,-2.917 0.331,0 0.265,0.707 0.265,1.083 0,1.746 0,1.768 -0.486,1.768 -0.531,0 -0.929,0.641 -2.476,0.641 -1.635,0 -2.983,-1.371 -2.983,-3.028 0,-1.415 0.575,-2.1 1.834,-2.63 2.321,-0.928 2.895,-1.392 2.895,-2.122 0,-0.906 -0.685,-1.414 -1.546,-1.414 -2.012,0 -2.211,1.923 -2.432,1.923 -0.331,0 -0.243,-0.265 -0.243,-0.862 0,-0.155 -0.022,-0.906 0.111,-1.083 0.265,-0.332 1.79,-0.508 2.166,-0.508 1.613,0 2.983,0.884 2.983,2.652 0,1.569 -1.481,2.143 -2.674,2.74"
         id="path2874"
         style="fill:#0c2950;fill-opacity:1;fill-rule:evenodd;stroke:none" /><path
         d="m 541.692,449.108 c 0,2.011 0.972,1.171 0.972,1.724 -0.022,0.221 -0.154,0.243 -0.331,0.243 -0.243,0 -0.818,-0.088 -1.525,-0.088 -0.906,0 -1.591,0.088 -2.055,0.088 -0.288,0 -0.42,-0.066 -0.42,-0.243 0,-0.575 1.746,-0.089 1.746,-1.216 l 0,-7.934 c 0,-0.22 0.132,-0.353 0.265,-0.353 0.508,0 0.95,0.707 2.365,1.105 0.11,0.022 0.198,0.11 0.198,0.243 0,0.464 -1.215,-0.11 -1.215,1.215 l 0,5.216"
         id="path2878"
         style="fill:#0c2950;fill-opacity:1;fill-rule:evenodd;stroke:none" /><path
         d="m 532.175,448.887 c 0.044,0.641 1.149,1.569 2.409,1.569 0.287,0 2.166,-0.155 2.144,-2.497 l 0,-5.591 c 0,-0.42 0.309,-0.531 0.397,-0.531 0.354,0 0.553,0.067 0.796,0.111 0.243,0.066 0.552,0.132 1.193,0.132 0.111,0 0.398,0.022 0.398,0.199 0,0.53 -1.171,0 -1.171,0.84 l 0,5.149 c 0,1.879 -1.459,2.962 -3.227,2.962 -1.171,0 -2.254,-0.509 -2.939,-1.547 l -0.044,0 0,1.215 c 0,0.088 -0.022,0.332 -0.199,0.332 -0.332,0 -0.508,-0.067 -0.752,-0.133 -0.265,-0.044 -0.574,-0.111 -1.193,-0.111 -0.353,0 -0.817,-0.022 -0.817,-0.198 0,-0.487 1.392,-0.199 1.392,-0.774 l 0,-7.646 c 0,-0.42 0.309,-0.531 0.398,-0.531 0.353,0 0.552,0.067 0.795,0.111 0.243,0.066 0.553,0.132 1.193,0.132 0.111,0 0.398,0.022 0.398,0.199 0,0.53 -1.171,0 -1.171,0.84 l 0,5.768"
         id="path2882"
         style="fill:#0c2950;fill-opacity:1;fill-rule:evenodd;stroke:none" /><path
         d="m 526.784,446.898 c -0.884,0.42 -2.011,0.773 -2.011,1.945 0,1.149 0.884,1.812 1.967,1.812 2.386,0 2.143,-2.917 2.63,-2.917 0.331,0 0.265,0.707 0.265,1.083 0,1.746 0,1.768 -0.486,1.768 -0.531,0 -0.929,0.641 -2.476,0.641 -1.635,0 -2.983,-1.371 -2.983,-3.028 0,-1.415 0.575,-2.1 1.834,-2.63 2.321,-0.928 2.895,-1.392 2.895,-2.122 0,-0.906 -0.685,-1.414 -1.547,-1.414 -2.011,0 -2.21,1.923 -2.431,1.923 -0.331,0 -0.243,-0.265 -0.243,-0.862 0,-0.155 -0.022,-0.906 0.111,-1.083 0.265,-0.332 1.79,-0.508 2.166,-0.508 1.613,0 2.983,0.884 2.983,2.652 0,1.569 -1.481,2.143 -2.674,2.74"
         id="path2886"
         style="fill:#0c2950;fill-opacity:1;fill-rule:evenodd;stroke:none" /><path
         d="m 550.164,439.293 c 0.203,0 0.709,0.709 0.709,0.894 0,0.186 -0.506,0.877 -0.709,0.877 -0.219,0 -0.708,-0.674 -0.708,-0.877 0,-0.202 0.489,-0.894 0.708,-0.894"
         id="path2890"
         style="fill:#0c2950;fill-opacity:1;fill-rule:evenodd;stroke:none" /><path
         d="m 540.934,439.293 c 0.203,0 0.709,0.709 0.709,0.894 0,0.186 -0.506,0.877 -0.709,0.877 -0.219,0 -0.708,-0.674 -0.708,-0.877 0,-0.202 0.489,-0.894 0.708,-0.894"
         id="path2894"
         style="fill:#0c2950;fill-opacity:1;fill-rule:evenodd;stroke:none" /><path
         d="m 527.589,440.093 c 0.337,-8.743 6.798,-15.822 14.573,-15.822 7.808,0 14.159,7.03 14.446,15.825 l 3.243,0.006 c -0.773,-9.159 -8.446,-16.352 -17.805,-16.352 -9.353,0 -17.028,7.182 -17.81,16.333 l 3.353,0.01"
         id="path2898"
         style="fill:#edac09;fill-opacity:1;fill-rule:evenodd;stroke:none" /><path
         d="m 543.19,422.293 c 0,-0.632 -0.513,-1.145 -1.145,-1.145 -0.633,0 -1.145,0.513 -1.145,1.145 0,0.632 0.512,1.145 1.145,1.145 0.632,0 1.145,-0.513 1.145,-1.145"
         id="path2902"
         style="fill:#edac09;fill-opacity:1;fill-rule:nonzero;stroke:none" /><path
         d="m 541.7,417.192 0.72864,0 0,4.6843 -0.72864,0 0,-4.6843 z"
         id="path2904"
         style="fill:#edac09;fill-opacity:1;fill-rule:nonzero;stroke:none" /><path
         d="m 540.685,418.545 2.7587,0 0,0.72864 -2.7587,0 0,-0.72864 z"
         id="path2906"
         style="fill:#edac09;fill-opacity:1;fill-rule:nonzero;stroke:none" /></g></g></svg>